<?xml version="1.0" standalone="no"?>
<!DOCTYPE svg PUBLIC "-//W3C//DTD SVG 20010904//EN"
 "http://www.w3.org/TR/2001/REC-SVG-20010904/DTD/svg10.dtd">
<svg version="1.0" xmlns="http://www.w3.org/2000/svg"
 width="234.000000pt" height="118.000000pt" viewBox="0 0 234.000000 118.000000"
 preserveAspectRatio="xMidYMid meet">

<g transform="translate(0.000000,118.000000) scale(0.100000,-0.100000)"
fill="#000000" stroke="none">
<path d="M140 573 l0 -473 475 0 475 0 0 470 0 470 -22 0 c-13 0 -227 1 -476
3 l-452 2 0 -472z"/>
<path d="M1325 781 c-44 -11 -84 -40 -116 -85 -25 -33 -29 -48 -29 -104 0 -82
31 -140 94 -177 71 -42 204 -30 247 21 9 11 8 19 -6 34 -18 20 -18 20 -51 -1
-21 -13 -51 -21 -79 -21 -110 0 -176 105 -127 201 38 75 118 99 197 61 44 -21
48 -22 63 -6 16 16 15 19 -11 41 -44 39 -113 52 -182 36z"/>
<path d="M1610 585 l0 -195 30 0 30 0 0 195 0 195 -30 0 -30 0 0 -195z"/>
<path d="M1846 588 l83 -193 33 0 33 0 72 165 c103 237 98 220 59 220 -28 0
-34 -5 -45 -36 -30 -82 -114 -264 -120 -259 -3 4 -33 70 -67 148 l-61 142 -35
3 -36 3 84 -193z"/>
</g>
</svg>
