<svg version="1.1" id="Layer_1" xmlns="http://www.w3.org/2000/svg" xmlns:xlink="http://www.w3.org/1999/xlink" x="0px" y="0px"
	 width="100%" viewBox="0 0 234 118" enable-background="new 0 0 234 118" xml:space="preserve">
<path fill="#FCFDFD" opacity="1.000000" stroke="none" 
	d="
M165.000000,119.000000 
	C110.000000,119.000000 55.500008,119.000000 1.000007,119.000000 
	C1.000005,79.666672 1.000005,40.333344 1.000002,1.000013 
	C78.999992,1.000008 156.999985,1.000008 234.999969,1.000004 
	C234.999985,40.333321 234.999985,79.666641 235.000000,118.999985 
	C211.833328,119.000000 188.666672,119.000000 165.000000,119.000000 
M110.045731,106.054970 
	C110.049797,77.516083 110.068260,48.977165 110.017860,20.438372 
	C110.015182,18.920946 109.431198,17.404551 108.961052,15.405380 
	C108.672058,15.252903 108.383057,15.100426 107.517456,14.313462 
	C78.380867,14.252626 49.244286,14.185777 20.107670,14.165359 
	C19.373522,14.164845 18.639013,14.676030 17.093489,14.969651 
	C16.180260,16.523073 14.497533,18.065006 14.474141,19.631716 
	C14.265433,33.609741 14.316013,47.592239 14.356425,61.573231 
	C14.401143,77.043518 14.515480,92.513603 14.373945,108.327255 
	C14.398446,108.685852 14.587052,108.830635 15.414138,109.101814 
	C15.608519,109.092850 15.802898,109.083878 16.212912,109.321342 
	C16.212912,109.321342 16.702007,109.348984 16.702007,109.348984 
	C16.702007,109.348984 17.093338,109.089127 18.010561,109.225388 
	C47.977539,109.180328 77.944511,109.135269 108.101501,109.322197 
	C108.101501,109.322197 108.535439,109.314461 108.535439,109.314461 
	C108.535439,109.314461 108.704697,108.972885 109.105766,108.653618 
	C109.169823,108.495209 109.233879,108.336792 109.792679,107.974838 
	C109.837715,107.644470 109.882759,107.314110 110.045731,106.054970 
M129.472794,49.938614 
	C136.516266,44.361332 143.523987,45.039661 150.455307,50.458401 
	C151.861069,49.125526 153.040237,48.007488 154.209000,46.899323 
	C146.837891,38.173325 132.738800,37.818066 124.327408,45.958954 
	C116.366531,53.663826 116.522926,67.611267 124.653542,75.042755 
	C133.177841,82.834068 147.373596,82.237846 154.150055,73.548622 
	C152.897293,72.397552 151.625381,71.228882 150.418472,70.119942 
	C142.554062,75.591164 134.372559,75.616043 129.173080,70.411583 
	C123.973106,65.206627 123.876976,57.181648 129.472794,49.938614 
M199.532684,66.893593 
	C198.878357,68.240044 198.224014,69.586487 197.235657,71.620262 
	C193.174072,62.172424 189.136734,53.625256 185.849625,44.798687 
	C184.053772,39.976498 181.306732,40.087048 177.289322,41.248631 
	C182.953186,54.306072 188.490173,67.071022 194.361786,80.607407 
	C196.662430,79.865326 200.128540,79.776070 200.781235,78.375610 
	C206.499374,66.106560 211.715332,53.603455 217.100616,41.122383 
	C212.606522,39.744793 210.333710,40.960651 208.802322,45.116539 
	C206.165146,52.273300 202.857071,59.182854 199.532684,66.893593 
M161.912384,61.499504 
	C161.912384,67.570557 161.912384,73.641609 161.912384,79.777504 
	C164.339584,79.777504 166.093658,79.777504 168.130188,79.777504 
	C168.130188,66.748718 168.130188,53.931526 168.130188,40.936119 
	C166.027817,40.936119 164.150803,40.936119 161.912384,40.936119 
	C161.912384,47.633858 161.912384,54.066849 161.912384,61.499504 
z"/>
<path fill="#0F0F0F" opacity="1.000000" stroke="none" 
	d="
M129.203506,50.205345 
	C123.876976,57.181648 123.973106,65.206627 129.173080,70.411583 
	C134.372559,75.616043 142.554062,75.591164 150.418472,70.119942 
	C151.625381,71.228882 152.897293,72.397552 154.150055,73.548622 
	C147.373596,82.237846 133.177841,82.834068 124.653542,75.042755 
	C116.522926,67.611267 116.366531,53.663826 124.327408,45.958954 
	C132.738800,37.818066 146.837891,38.173325 154.209000,46.899323 
	C153.040237,48.007488 151.861069,49.125526 150.455307,50.458401 
	C143.523987,45.039661 136.516266,44.361332 129.203506,50.205345 
z"/>
<path fill="#101010" opacity="1.000000" stroke="none" 
	d="
M199.681625,66.544876 
	C202.857071,59.182854 206.165146,52.273300 208.802322,45.116539 
	C210.333710,40.960651 212.606522,39.744793 217.100616,41.122383 
	C211.715332,53.603455 206.499374,66.106560 200.781235,78.375610 
	C200.128540,79.776070 196.662430,79.865326 194.361786,80.607407 
	C188.490173,67.071022 182.953186,54.306072 177.289322,41.248631 
	C181.306732,40.087048 184.053772,39.976498 185.849625,44.798687 
	C189.136734,53.625256 193.174072,62.172424 197.235657,71.620262 
	C198.224014,69.586487 198.878357,68.240044 199.681625,66.544876 
z"/>
<path fill="#162AA9" opacity="1.000000" stroke="none" 
	d="
M108.094063,14.947947 
	C108.383057,15.100426 108.672058,15.252903 108.937515,15.746837 
	C108.913986,16.088293 108.710648,16.289421 108.275383,16.221008 
	C78.892708,16.121590 49.944962,16.151457 20.998264,15.991063 
	C16.865610,15.968166 15.980262,17.711411 16.004730,21.398581 
	C16.126173,39.698376 16.021557,57.999527 16.068220,76.300011 
	C16.094927,86.773514 16.258327,97.246658 16.070620,107.802078 
	C15.586978,107.935150 15.392900,107.986099 15.051714,107.993080 
	C14.904606,107.949120 14.599498,107.983780 14.599499,107.983780 
	C14.515480,92.513603 14.401143,77.043518 14.356425,61.573231 
	C14.316013,47.592239 14.265433,33.609741 14.474141,19.631716 
	C14.497533,18.065006 16.180260,16.523073 17.972404,15.004728 
	C48.598904,15.009186 78.346481,14.978566 108.094063,14.947947 
z"/>
<path fill="#050505" opacity="1.000000" stroke="none" 
	d="
M161.912384,60.999672 
	C161.912384,54.066849 161.912384,47.633858 161.912384,40.936119 
	C164.150803,40.936119 166.027817,40.936119 168.130188,40.936119 
	C168.130188,53.931526 168.130188,66.748718 168.130188,79.777504 
	C166.093658,79.777504 164.339584,79.777504 161.912384,79.777504 
	C161.912384,73.641609 161.912384,67.570557 161.912384,60.999672 
z"/>
<path fill="#112897" opacity="1.000000" stroke="none" 
	d="
M15.198821,108.037041 
	C15.392900,107.986099 15.586978,107.935150 16.499582,107.856850 
	C47.721085,107.794395 78.224060,107.759300 108.854553,107.856865 
	C108.982071,107.989525 109.297943,108.178375 109.297943,108.178375 
	C109.233879,108.336792 109.169823,108.495209 108.699959,108.793503 
	C108.294151,108.933388 107.911491,109.090202 107.911491,109.090210 
	C77.944511,109.135269 47.977539,109.180328 17.278973,109.094650 
	C16.364016,109.000923 16.180647,109.037918 15.997279,109.074905 
	C15.802898,109.083878 15.608519,109.092850 15.249165,108.753441 
	C15.084190,108.405067 15.198821,108.037041 15.198821,108.037041 
z"/>
<path fill="#162AA9" opacity="1.000000" stroke="none" 
	d="
M109.015907,15.987984 
	C109.431198,17.404551 110.015182,18.920946 110.017860,20.438372 
	C110.068260,48.977165 110.049797,77.516083 109.734451,106.561317 
	C109.255295,107.097633 109.087418,107.127602 108.912704,106.672531 
	C108.840790,76.221466 108.775719,46.255444 108.710648,16.289421 
	C108.710648,16.289421 108.913986,16.088293 109.015907,15.987984 
z"/>
<path fill="#3C53B6" opacity="1.000000" stroke="none" 
	d="
M107.805756,14.630705 
	C78.346481,14.978566 48.598904,15.009186 18.377998,14.994186 
	C18.639013,14.676030 19.373522,14.164845 20.107670,14.165359 
	C49.244286,14.185777 78.380867,14.252626 107.805756,14.630705 
z"/>
<path fill="#304AC3" opacity="1.000000" stroke="none" 
	d="
M108.919548,107.157570 
	C109.087418,107.127602 109.255295,107.097633 109.675491,107.025703 
	C109.882759,107.314110 109.837715,107.644470 109.545311,108.076607 
	C109.297943,108.178375 108.982071,107.989525 108.921318,107.722855 
	C108.860565,107.456177 108.919548,107.157570 108.919548,107.157570 
z"/>
<path fill="#304AC3" opacity="1.000000" stroke="none" 
	d="
M15.051714,107.993080 
	C15.198821,108.037041 15.084190,108.405067 15.011976,108.583328 
	C14.587052,108.830635 14.398446,108.685852 14.486721,108.155518 
	C14.599498,107.983780 14.904606,107.949120 15.051714,107.993080 
z"/>
<path fill="#304AC3" opacity="1.000000" stroke="none" 
	d="
M16.105095,109.198120 
	C16.180647,109.037918 16.364016,109.000923 16.820362,109.026520 
	C17.093338,109.089127 16.702007,109.348984 16.702007,109.348984 
	C16.702007,109.348984 16.212912,109.321342 16.105095,109.198120 
z"/>
<path fill="#304AC3" opacity="1.000000" stroke="none" 
	d="
M108.006500,109.206200 
	C107.911491,109.090202 108.294151,108.933388 108.499420,108.953140 
	C108.704697,108.972885 108.535439,109.314461 108.535439,109.314461 
	C108.535439,109.314461 108.101501,109.322197 108.006500,109.206200 
z"/>
<path fill="#0126FD" opacity="1.000000" stroke="none" 
	d="
M108.912704,106.672531 
	C108.919548,107.157570 108.860565,107.456177 108.793800,107.590195 
	C78.224060,107.759300 47.721085,107.794395 16.789145,107.774734 
	C16.258327,97.246658 16.094927,86.773514 16.068220,76.300011 
	C16.021557,57.999527 16.126173,39.698376 16.004730,21.398581 
	C15.980262,17.711411 16.865610,15.968166 20.998264,15.991063 
	C49.944962,16.151457 78.892708,16.121590 108.275375,16.221008 
	C108.775719,46.255444 108.840790,76.221466 108.912704,106.672531 
z"/>
</svg>