<?xml version="1.0" standalone="no"?>
<!DOCTYPE svg PUBLIC "-//W3C//DTD SVG 20010904//EN"
 "http://www.w3.org/TR/2001/REC-SVG-20010904/DTD/svg10.dtd">
<svg version="1.0" xmlns="http://www.w3.org/2000/svg"
 width="483.000000pt" height="122.000000pt" viewBox="0 0 483.000000 122.000000"
 preserveAspectRatio="xMidYMid meet">

<g transform="translate(0.000000,122.000000) scale(0.100000,-0.100000)"
fill="#000000" stroke="none">
<path d="M170 600 l0 -450 450 0 450 0 0 450 0 450 -450 0 -450 0 0 -450z"/>
<path d="M2169 1024 c-17 -21 0 -49 32 -49 27 0 37 28 19 50 -16 19 -34 19
-51 -1z"/>
<path d="M3570 1025 c-18 -22 -8 -50 19 -50 32 0 49 28 32 49 -17 20 -35 20
-51 1z"/>
<path d="M4190 1019 c-14 -24 2 -49 31 -49 24 0 32 16 25 46 -8 30 -41 32 -56
3z"/>
<path d="M1311 985 c-103 -32 -148 -132 -102 -224 45 -86 161 -115 250 -60 31
19 32 22 18 36 -14 15 -19 14 -53 -2 -84 -40 -174 11 -174 98 0 94 96 147 177
98 30 -19 32 -19 47 -2 15 16 15 20 2 30 -14 12 -101 42 -115 40 -3 0 -26 -6
-50 -14z"/>
<path d="M1562 992 c-9 -7 -12 -46 -10 -163 l3 -154 25 0 25 0 0 160 c0 134
-2 160 -15 162 -8 2 -21 -1 -28 -5z"/>
<path d="M1666 992 c-3 -6 25 -79 62 -163 65 -146 70 -154 97 -154 27 0 32 8
97 154 42 95 65 158 59 164 -23 23 -48 -7 -96 -119 -27 -64 -54 -117 -58 -118
-4 0 -32 53 -61 119 -40 93 -57 121 -73 123 -12 2 -24 -1 -27 -6z"/>
<path d="M2170 795 l0 -125 25 0 25 0 0 125 0 125 -25 0 -25 0 0 -125z"/>
<path d="M2302 798 l3 -123 25 0 c24 0 25 2 28 80 2 43 8 85 15 93 21 26 56
33 87 17 28 -15 29 -17 32 -103 3 -85 3 -87 28 -87 24 0 25 2 28 78 4 119 -28
167 -111 167 -18 0 -43 -7 -55 -16 -20 -14 -22 -14 -22 0 0 11 -10 16 -30 16
l-31 0 3 -122z"/>
<path d="M2674 910 c-67 -27 -86 -125 -35 -182 26 -29 35 -33 83 -33 29 0 64
4 76 8 22 8 23 7 17 -15 -16 -54 -72 -72 -139 -44 -29 12 -34 12 -44 -4 -14
-24 -2 -33 61 -49 58 -14 115 0 149 36 21 23 23 35 26 159 l4 134 -26 0 c-16
0 -26 -6 -26 -15 0 -19 -9 -19 -34 0 -22 16 -79 19 -112 5z m106 -45 c55 -28
52 -95 -5 -122 -32 -15 -38 -15 -69 0 -56 26 -61 93 -8 121 35 19 46 19 82 1z"/>
<path d="M2990 898 c-93 -63 -58 -202 56 -224 47 -9 109 15 109 41 0 14 -6 19
-20 17 -80 -14 -91 -13 -118 8 -15 12 -27 26 -27 31 0 5 42 9 93 9 52 0 96 2
99 6 12 11 -12 78 -35 102 -37 37 -111 42 -157 10z m103 -29 c22 -12 37 -28
37 -41 0 -5 -31 -8 -70 -8 -72 0 -82 6 -52 32 32 28 55 33 85 17z"/>
<path d="M3250 795 l0 -125 25 0 c24 0 25 2 25 69 0 38 4 81 9 94 12 32 62 53
90 38 32 -18 41 -44 41 -125 0 -74 1 -76 25 -76 25 0 25 0 25 94 0 79 -3 97
-20 119 -25 32 -79 44 -129 28 -23 -7 -37 -7 -39 -1 -2 6 -15 10 -28 10 l-24
0 0 -125z"/>
<path d="M3570 795 l0 -125 25 0 25 0 0 125 0 125 -25 0 -25 0 0 -125z"/>
<path d="M3742 900 c-41 -25 -65 -79 -56 -125 14 -75 100 -121 177 -94 31 10
42 20 42 34 0 15 -5 19 -20 16 -11 -1 -42 -4 -68 -5 -38 -1 -52 3 -63 18 -8
11 -14 23 -14 28 0 4 43 8 95 8 l95 0 0 35 c0 24 -9 44 -28 66 -38 42 -110 51
-160 19z m112 -41 c14 -11 26 -25 26 -30 0 -5 -31 -9 -70 -9 -72 0 -82 6 -52
32 36 32 61 34 96 7z"/>
<path d="M4000 795 l0 -125 25 0 c25 0 25 1 25 80 0 87 13 113 65 126 16 4 25
13 25 25 0 23 -24 25 -62 5 -24 -13 -28 -13 -28 0 0 8 -10 14 -25 14 l-25 0 0
-125z"/>
<path d="M4192 798 l3 -123 25 0 25 0 3 123 3 122 -31 0 -31 0 3 -122z"/>
<path d="M4354 910 c-28 -11 -35 -23 -24 -40 7 -12 15 -12 44 -2 41 15 83 7
96 -18 15 -29 13 -30 -40 -30 -103 0 -155 -64 -97 -118 32 -30 78 -37 115 -18
26 14 31 14 36 1 3 -8 15 -15 26 -15 19 0 20 6 20 96 0 92 -1 97 -29 125 -25
24 -37 29 -78 28 -26 0 -58 -4 -69 -9z m121 -155 c0 -42 -95 -56 -110 -17 -9
24 24 43 70 40 32 -2 40 -7 40 -23z"/>
<path d="M2060 448 c-5 -33 -3 -208 3 -208 4 0 7 47 7 105 0 58 -2 105 -5 105
-3 0 -5 -1 -5 -2z"/>
<path d="M1237 424 c-46 -25 -63 -106 -32 -150 19 -28 69 -48 100 -40 39 10
29 21 -20 21 -54 0 -74 22 -75 82 0 54 37 88 87 80 34 -6 45 6 17 17 -24 9
-47 7 -77 -10z"/>
<path d="M2136 405 c-13 -30 -6 -127 10 -152 8 -13 21 -23 29 -23 22 0 18 17
-5 23 -17 4 -20 14 -20 65 0 55 2 61 23 65 22 4 22 4 0 6 -12 0 -23 9 -25 19
-3 15 -5 15 -12 -3z"/>
<path d="M1390 368 c-29 -32 -27 -83 6 -113 42 -39 82 -27 104 30 29 76 -56
141 -110 83z m78 -4 c40 -28 22 -114 -24 -114 -9 0 -24 5 -35 10 -37 20 -16
120 25 120 6 0 22 -7 34 -16z"/>
<path d="M1558 312 c-2 -39 0 -72 5 -72 4 0 7 18 7 39 0 53 14 88 40 96 37 12
59 -19 63 -89 l3 -61 2 71 c2 85 -6 96 -71 92 l-46 -3 -3 -73z"/>
<path d="M1742 378 c-22 -22 -13 -48 21 -63 19 -8 39 -20 45 -28 18 -21 -10
-40 -48 -35 -37 6 -40 -9 -4 -18 35 -9 74 13 74 43 0 17 -11 28 -45 44 -25 12
-45 25 -45 29 0 16 31 32 55 28 14 -3 25 -1 25 3 0 13 -64 11 -78 -3z"/>
<path d="M1882 329 c-2 -52 2 -69 16 -82 21 -19 48 -22 58 -6 3 6 15 9 25 6
17 -5 19 1 18 71 l-2 77 -7 -57 c-8 -66 -22 -88 -56 -88 -30 0 -38 14 -45 85
l-6 60 -1 -66z"/>
<path d="M2250 370 c-29 -29 -27 -84 5 -115 28 -29 36 -30 75 -10 30 15 35 31
31 85 -4 53 -73 78 -111 40z m80 -10 c24 -24 26 -57 4 -88 -17 -24 -53 -29
-72 -10 -17 17 -15 78 5 100 21 23 38 23 63 -2z"/>
<path d="M2418 317 c-1 -42 0 -77 3 -77 10 0 17 123 9 140 -5 8 -10 -18 -12
-63z"/>
<path d="M2455 380 c-7 -12 2 -12 30 0 19 8 19 9 -2 9 -12 1 -25 -3 -28 -9z"/>
<path d="M2549 369 c-48 -48 1 -151 65 -135 35 9 33 24 -3 18 -20 -3 -35 2
-51 18 -31 31 -20 45 38 48 43 3 52 6 52 22 0 47 -64 66 -101 29z m69 -1 c24
-24 13 -38 -28 -38 -26 0 -40 5 -40 13 0 18 21 37 40 37 9 0 21 -5 28 -12z"/>
<path d="M2697 372 c-20 -22 -10 -40 35 -61 21 -11 33 -23 33 -36 0 -16 -7
-20 -38 -20 -41 0 -45 -18 -5 -23 14 -2 35 6 49 17 30 25 19 48 -34 74 -21 9
-37 21 -37 26 0 18 30 33 55 27 14 -4 25 -2 25 4 0 17 -66 11 -83 -8z"/>
</g>
</svg>
